<?xml version="1.0" encoding="utf-8"?>
<!-- Generator: Adobe Illustrator 22.0.0, SVG Export Plug-In . SVG Version: 6.00 Build 0)  -->
<svg version="1.1" id="Layer_1" xmlns="http://www.w3.org/2000/svg" xmlns:xlink="http://www.w3.org/1999/xlink" x="0px" y="0px"
	 viewBox="0 0 896.5 896.5" style="enable-background:new 0 0 896.5 896.5;" xml:space="preserve">
<style type="text/css">
	.st0{opacity:0.9;filter:url(#b);enable-background:new    ;}
	.st1{fill:url(#SVGID_1_);}
	.st2{opacity:0.9;filter:url(#d);enable-background:new    ;}
	.st3{fill:url(#SVGID_2_);}
</style>
<filter  filterUnits="userSpaceOnUse" height="896.528" id="d" width="896.528" x="0" y="0">
	<feOffset  dy="8"></feOffset>
	<feGaussianBlur  result="blur-2" stdDeviation="8"></feGaussianBlur>
	<feFlood  flood-opacity=".2"></feFlood>
	<feComposite  in2="blur-2" operator="in"></feComposite>
	<feComposite  in="SourceGraphic" operator="over"></feComposite>
</filter>
<filter  filterUnits="userSpaceOnUse" height="845.356" id="b" width="845.356" x="27" y="26">
	<feOffset  dy="8"></feOffset>
	<feGaussianBlur  result="blur" stdDeviation="8"></feGaussianBlur>
	<feFlood  flood-opacity=".149"></feFlood>
	<feComposite  in2="blur" operator="in"></feComposite>
	<feComposite  in="SourceGraphic" operator="over"></feComposite>
</filter>
<g class="st0">
	
		<linearGradient id="SVGID_1_" gradientUnits="userSpaceOnUse" x1="-225.9995" y1="773.4242" x2="-225.0195" y2="772.4443" gradientTransform="matrix(253.571 543.7847 543.7847 -253.571 -362669.75 319070.6875)">
		<stop  offset="0" style="stop-color:#F29514"/>
		<stop  offset="1" style="stop-color:#FACC30"/>
	</linearGradient>
	<path class="st1" d="M616.2,93.3l215.4,461.8c9.1,19.6,0.7,42.9-19,52.1L350.7,822.5c-19.6,9.1-42.9,0.7-52.1-19L83.3,341.7
		c-9.1-19.6-0.7-42.9,19-52.1L564.1,74.3C583.7,65.1,607,73.6,616.2,93.3z"/>
</g>
<g class="st2">
	
		<linearGradient id="SVGID_2_" gradientUnits="userSpaceOnUse" x1="-225.8786" y1="773.4113" x2="-224.8786" y2="772.4113" gradientTransform="matrix(424.2641 424.2641 424.2641 -424.2641 -231850.1875 423978.8125)">
		<stop  offset="0" style="stop-color:#5F4BCF"/>
		<stop  offset="1" style="stop-color:#5F4B8B"/>
	</linearGradient>
	<path class="st3" d="M476.5,44.3L844.2,412c15.6,15.6,15.6,40.9,0,56.6L476.5,836.2c-15.6,15.6-40.9,15.6-56.6,0L52.3,468.5
		c-15.6-15.6-15.6-40.9,0-56.6L420,44.3C435.6,28.7,460.9,28.7,476.5,44.3z"/>
</g>
</svg>
